PathFileType	4	(X/Y/Z)	Kaydara	
DataRate	CameraRate	NumFrames	NumMarkers	Units	OrigDataRate	OrigDataStartFrame	OrigNumFrames	
240.00	240.00	4	72	mm	240.00	1	355	
Frame#	Time	Hips			RightUpLeg			RightLeg			RightFoot			RightFoot_End			LeftUpLeg			LeftLeg			LeftFoot			LeftFoot_End			Spine			Spine1			Spine2			Spine3			Neck			Head			Head_End			RightShoulder			RightArm			RightForeArm			RightHand			RightHandThumb1			RightHandThumb2			RightHandThumb3			RightHandThumb3_End			RightInHandIndex			RightHandIndex1			RightHandIndex2			RightHandIndex3			RightHandIndex3_End			RightInHandMiddle			RightHandMiddle1			RightHandMiddle2			RightHandMiddle3			RightHandMiddle3_End			RightInHandRing			RightHandRing1			RightHandRing2			RightHandRing3			RightHandRing3_End			RightInHandPinky			RightHandPinky1			RightHandPinky2			RightHandPinky3			RightHandPinky3_End			LeftShoulder			LeftArm			LeftForeArm			LeftHand			LeftHandThumb1			LeftHandThumb2			LeftHandThumb3			LeftHandThumb3_End			LeftInHandIndex			LeftHandIndex1			LeftHandIndex2			LeftHandIndex3			LeftHandIndex3_End			LeftInHandMiddle			LeftHandMiddle1			LeftHandMiddle2			LeftHandMiddle3			LeftHandMiddle3_End			LeftInHandRing			LeftHandRing1			LeftHandRing2			LeftHandRing3			LeftHandRing3_End			LeftInHandPinky			LeftHandPinky1			LeftHandPinky2			LeftHandPinky3			LeftHandPinky3_End			
		X1	Y1	Z1	X2	Y2	Z2	X3	Y3	Z3	X4	Y4	Z4	X5	Y5	Z5	X6	Y6	Z6	X7	Y7	Z7	X8	Y8	Z8	X9	Y9	Z9	X10	Y10	Z10	X11	Y11	Z11	X12	Y12	Z12	X13	Y13	Z13	X14	Y14	Z14	X15	Y15	Z15	X16	Y16	Z16	X17	Y17	Z17	X18	Y18	Z18	X19	Y19	Z19	X20	Y20	Z20	X21	Y21	Z21	X22	Y22	Z22	X23	Y23	Z23	X24	Y24	Z24	X25	Y25	Z25	X26	Y26	Z26	X27	Y27	Z27	X28	Y28	Z28	X29	Y29	Z29	X30	Y30	Z30	X31	Y31	Z31	X32	Y32	Z32	X33	Y33	Z33	X34	Y34	Z34	X35	Y35	Z35	X36	Y36	Z36	X37	Y37	Z37	X38	Y38	Z38	X39	Y39	Z39	X40	Y40	Z40	X41	Y41	Z41	X42	Y42	Z42	X43	Y43	Z43	X44	Y44	Z44	X45	Y45	Z45	X46	Y46	Z46	X47	Y47	Z47	X48	Y48	Z48	X49	Y49	Z49	X50	Y50	Z50	X51	Y51	Z51	X52	Y52	Z52	X53	Y53	Z53	X54	Y54	Z54	X55	Y55	Z55	X56	Y56	Z56	X57	Y57	Z57	X58	Y58	Z58	X59	Y59	Z59	X60	Y60	Z60	X61	Y61	Z61	X62	Y62	Z62	X63	Y63	Z63	X64	Y64	Z64	X65	Y65	Z65	X66	Y66	Z66	X67	Y67	Z67	X68	Y68	Z68	X69	Y69	Z69	X70	Y70	Z70	X71	Y71	Z71	X72	Y72	Z72	

1	0.0	1921.0129	906.651	56.2195	2005.9935357599459	894.6502048926607	4.3855112304489685	1924.539629023112	495.1350609384231	-93.06106766740194	1891.6337364432497	107.27327823836525	-159.85030933024825	1816.6894895158512	32.71756044990666	-0.569333447593194	1845.642521310219	890.4881030449218	119.80483396894313	1778.2681829071971	487.36270049259355	212.43137037086046	1740.1912141011167	55.894329083459795	297.89968427611416	1605.1494555344855	-16.435357181487287	182.9766095444892	1875.437728147015	1032.2435257682755	4.891954508825649	1824.566429972622	1096.3941008139013	-46.86153649984185	1767.0452208548052	1157.242081091228	-103.11599222831173	1706.0117526862048	1206.0374761845333	-160.70302833177956	1640.4667441707734	1258.552392126534	-221.55869338749008	1579.5911543114873	1306.295805179651	-276.11862082487613	1463.1674482452759	1403.0220069864272	-327.36665134550896	1685.5077512588155	1243.2146596321206	-223.29446937982155	1740.715151833263	1226.5103080981269	-334.19347391080464	1756.2445765924301	950.193279740055	-312.9142353686674	1817.6482748307953	696.073850346058	-337.95221203190977	1819.3419317146509	671.7521508305557	-346.62973288026797	1809.4186500289147	656.0141451559888	-353.19739163530767	1803.4116470894019	644.077074733719	-356.1692098433356	1799.1768406367862	633.2897566565491	-357.27630209169797	1824.282748047613	664.3426485422485	-341.4829595027613	1831.0756970146567	619.4798565833305	-341.80604695213015	1827.5428047607109	597.2085049156445	-343.10213589614807	1819.5492743317022	592.5515344814055	-345.7757411357395	1809.0226807495842	594.8953102276555	-349.24859585958757	1826.111248141705	663.671863849701	-337.16572684264514	1833.7282819925522	619.5486737396492	-335.14535765610736	1830.0821114870466	595.3143794120757	-335.99028788531916	1820.5384429827643	589.7286698291977	-338.9426809441522	1809.069173371604	592.3091099780772	-342.6097913917286	1827.3208736734714	664.2366062839013	-334.0860712937552	1835.463922491226	624.8729936931077	-329.5397807589147	1832.4864329441173	603.8907027680334	-329.697700282081	1823.3872810301282	598.5774251870323	-332.2382914328383	1812.653723162849	601.0390459833254	-335.5407159112462	1827.8003351433963	667.0236696412941	-330.6949137386577	1835.8726577043967	632.2670378686599	-324.363129902163	1833.7650433159204	615.8566932640706	-323.6070091232748	1827.2619111501206	612.1705476462881	-325.0331957233155	1817.8307387260852	614.4601358499164	-327.7128982073541	1638.247337261114	1239.6005004778858	-177.86479171094015	1573.732703552927	1177.1396355804811	-81.19470909377453	1697.2484566004243	986.5051535261268	-197.86468525659882	1862.59729248613	794.0729683412582	-300.76977955375503	1848.4131836406316	781.7128833835682	-319.16582486576414	1844.3440491878355	761.3109668806997	-352.92444888522675	1842.3078606597242	745.2349593541353	-376.97451848142475	1841.2926744730687	730.234965211573	-397.48645129443275	1848.9612580037367	773.8097286853748	-321.74680289878626	1835.4524665572726	736.2261519093772	-360.335496387148	1831.4445201417664	710.458683744532	-392.7691343195293	1832.311471610414	699.0895794013181	-412.5611453892466	1835.2945907158128	692.81629457518	-428.69209077535277	1851.8570184463488	770.0552860998162	-322.13912952544047	1840.2457238604802	731.3665030230693	-359.9880015761502	1836.3048982899702	702.8760703729693	-395.3131232619786	1837.5584682108974	688.9806877551736	-419.15957503544155	1840.9234714493118	682.0295751621239	-436.7942459229686	1854.1953548909712	768.3382208441407	-321.38614485832943	1845.6663499171907	732.1057071722039	-354.5196877832236	1842.6925913208365	706.9533289312056	-385.18214801869635	1844.1466259250724	693.3802005143857	-408.11647223003524	1847.4266239438991	686.7638813604746	-424.66553099883976	1857.6932615851374	767.6341220125006	-319.7583219068374	1851.8473178082913	733.8764059489033	-349.0046381040748	1850.222963821358	713.3942463595218	-373.2156367765953	1851.6496896357564	703.3289597024321	-389.7784209301061	1854.7659570507028	697.3730275911505	-404.342876505744
2	0.004	1921.0129	906.651	56.2195	2006.0255419564771	894.6590210991887	4.401375274782	1924.503374434991	495.1421216308087	-92.97594162080699	1891.6793115774226	107.28556875741012	-159.77772012417236	1816.7276516051843	32.729421961257906	-0.5005028574588816	1845.6048500176398	890.4765931463621	119.78773273003381	1778.2339910624235	487.3482257585837	212.40665933489225	1740.1173172289516	55.88037446846342	297.79734649833904	1605.0808529379697	-16.45933559891423	182.87444064881797	1875.462139716301	1032.2553121125347	4.8967750547715	1824.605193585083	1096.4188178361687	-46.85377469374762	1767.0985401752453	1157.2785707710523	-103.11045620121747	1706.0694426308178	1206.0737275202523	-160.70312061306973	1640.5288386427374	1258.5874401435765	-221.56574198454044	1579.6565516032429	1306.3282697523966	-276.1334869539726	1463.2331689521684	1403.0389526711544	-327.4164384221039	1685.5866046532233	1243.2689519294177	-223.29653364096112	1740.9982377303977	1226.7745024572407	-334.29417630243	1756.4400829955223	950.40293109149	-313.27665570411546	1817.7402802568101	696.463415487973	-339.11355866020085	1819.4610920534199	672.2506421095932	-347.86198355178317	1809.5065701206506	656.5902930400399	-354.5584733444414	1803.4707358149515	644.6965735176886	-357.6262021443058	1799.2058455767792	633.9362137308075	-358.818549942095	1824.3829855341746	664.8140057846944	-342.7414961620495	1831.14520330222	620.0306073839577	-343.24656383245997	1827.569873746212	597.8073434164999	-344.68221070461357	1819.546546731593	593.1789162793601	-347.4305068440762	1808.992993208786	595.5454065439576	-350.9570373040498	1826.1923163491072	664.1109320747422	-338.4353873160262	1833.7690149823475	620.0477150400924	-336.5985300370554	1830.0740779164564	595.8613671637476	-337.59664131915764	1820.4932855933976	590.3079222346817	-340.63957314695864	1808.9939426358546	592.912161938284	-344.3656229283917	1827.3893443615152	664.6508558462499	-335.35889332850877	1835.4857802695408	625.3194988657636	-330.979650061224	1832.4633373691072	604.3742762456527	-331.2717074627232	1823.327077132963	599.0896122397394	-333.8999623407903	1812.564625947232	601.5724219490314	-337.2579628797172	1827.853903457654	667.4068645792554	-331.96653598814436	1835.874820800914	632.660763798278	-325.78710270329174	1833.727591851281	616.2725948039332	-325.1386428118982	1827.1956415685536	612.6036900177595	-326.6288894232227	1817.737867650616	614.9099571954538	-329.3578910839689	1638.2885724232535	1239.6163792001614	-177.87164207211612	1573.617561689816	1177.0254004159547	-81.23112522633014	1697.067367067818	986.5494864305346	-198.2650420674511	1862.5787198130793	794.3035839208746	-301.55163616717715	1848.3929074108698	781.982697849558	-320.0252617186649	1844.3255718184548	761.5695571198899	-353.84483185270113	1842.2819634647803	745.4850067903744	-377.9297803909233	1841.253169247363	730.4772655504352	-398.46432685848987	1848.9062220773262	774.086151905694	-322.58666579163344	1835.3247151092503	736.5455228125157	-361.23420346774077	1831.2848955468412	710.7779034955618	-393.7066148616297	1832.1550187073512	699.3894793533791	-413.5231291909265	1835.1562717359254	693.0872337172642	-429.67462147333146	1851.7818098946095	770.3268039522594	-322.95627996982813	1840.0886739902026	731.6772682670118	-360.8502603908284	1836.110665785402	703.1858468230932	-396.2145002493163	1837.3669097856853	689.2667606568094	-420.0889829369475	1840.7511945817687	682.2837696172566	-437.74539351413245	1854.1074893993523	768.6054890034333	-322.18572915836063	1845.4933842882124	732.4053610155526	-355.3444067738977	1842.4848930497587	707.2512145111643	-386.0376310978797	1843.940274739288	693.6547387814187	-408.99722491847695	1847.2378170402394	687.0082167221211	-425.5658863737283	1857.5949725384971	767.8928126646025	-320.5360808477651	1851.6636506121804	734.1605630208882	-349.79196216640725	1850.0082307650534	713.6754273616341	-374.02228766466624	1851.4343664461662	703.5923593966295	-390.6009331100291	1854.565269441692	697.6092375170502	-405.18127834784553
3	0.008	1921.0129	906.651	56.2195	2006.0528534508799	894.6665203199632	4.4119883150499595	1924.4764793698455	495.14541250324294	-92.89776457089603	1891.735723397296	107.29490956991405	-159.7127576384006	1816.7772012695607	32.73682014800052	-0.4397602405214449	1845.572373236139	890.4663258521879	119.77522179023556	1778.2039078039327	487.3331915266118	212.37830436159334	1740.0507655849947	55.86482769051556	297.6916407620369	1605.0226051013888	-16.48971104916486	182.7687522017054	1875.4844296818023	1032.2674692878365	4.904722496991545	1824.6431699445056	1096.445815596866	-46.84185522247382	1767.1523858271687	1157.319513192252	-103.09986210239539	1706.1287096882681	1206.1160584927454	-160.69835261143908	1640.5936130637801	1258.630200418186	-221.56821021522276	1579.7256645039868	1306.3699707648543	-276.1440464384225	1463.3043796109955	1403.0660607588873	-327.4644937005275	1685.6678048021647	1243.3290771597801	-223.2959243753298	1741.2798632106299	1227.0380977501795	-334.39579558395667	1756.628381937121	950.6016527912299	-313.6608255929035	1817.8347792815912	696.851186122394	-340.314044491459	1819.5800166615024	672.7468767551272	-349.13478666496746	1809.5938337786736	657.1611433349774	-355.9551883507886	1803.5298151445709	645.3089106170985	-359.1158247653951	1799.2361832552242	634.5741746191625	-360.39128491717514	1824.4861552953485	665.2843260226798	-344.0430555701244	1831.2215774856436	620.5809205616017	-344.73402568956	1827.606276796706	598.4043026240834	-346.30754321844694	1819.553466659017	593.80225014284	-349.12640900159056	1808.9723893759092	596.1888001732322	-352.70113179099656	1826.2787225123225	664.549548272688	-339.7488729075704	1833.8202251382168	620.5472047771483	-338.09978793120996	1830.0795174124278	596.4073045862178	-339.2493261803051	1820.4621247515051	590.8835411259888	-342.3778671460392	1808.9321614578075	593.5086925778444	-346.15687722976725	1827.4647606116846	665.0650706196909	-336.67605495578135	1835.5206151862637	625.7672005533493	-332.46826549964186	1832.456132388742	604.8578122620675	-332.8930148813101	1823.2834292300709	599.5993102383703	-335.6042224565412	1812.4916474701708	602.1006113655154	-339.01219647643774	1827.916081691326	667.7903280104899	-333.2825963887718	1835.8921844237811	633.0561423003791	-327.2597809151948	1833.7081198247135	616.6892687251185	-326.717931416557	1827.1480526031996	613.0358680980876	-328.26885509864854	1817.663414170127	615.3564552010088	-331.04222413544096	1638.3321591683623	1239.6408478156875	-177.87173112540847	1573.5110573993634	1176.9254327617937	-81.25154121585719	1696.8904292600046	986.5987963025335	-198.65302660238393	1862.5141848021858	794.5411731294425	-302.3832694411643	1848.318130396572	782.2606569500585	-320.931299149018	1844.241863151561	761.8417399335004	-354.81087480414476	1842.1837515925486	745.7523554753313	-378.9301871214025	1841.1357778311456	730.7398871061216	-399.4870357029498	1848.7975070262319	774.3700774337088	-323.4730987033135	1835.1320321916521	736.8748279204053	-362.1761235037162	1831.051394408387	711.1111393342552	-394.6862401538856	1831.9190733170574	699.7071246049644	-414.5274368036307	1834.9337727041172	693.37980884444	-430.70019285948604	1851.6543207707132	770.6056237536279	-323.8205560860872	1839.8691250202523	731.9975979312931	-361.7566707839301	1835.844392821573	703.5096107750227	-397.1589485834838	1837.0966401748033	689.5713048802689	-421.0617192827451	1840.4951291059922	682.5606843970459	-438.7406738487032	1853.9686297174046	768.8798311068081	-323.0329051799451	1845.2614180806208	732.7138468028319	-356.21441908118686	1842.2101188264555	707.5617508738716	-386.93755834814027	1843.660539308135	693.9462344401661	-409.9227185546735	1846.9709127067708	687.2734958371132	-426.51176190742245	1857.4474066476132	768.158435085011	-321.36216459729553	1851.4244564520486	734.4530966967759	-350.62591119982386	1849.731915294683	713.9679804994641	-374.87503809480006	1851.1530575910783	703.8702418136635	-391.4698364688257	1854.2945351499827	697.8634440963717	-406.06680462600514
4	0.013	1921.0129	906.651	56.2195	2006.075494210844	894.6728445830432	4.418541930106794	1924.4608612957436	495.1455526114728	-92.82882143380226	1891.8031718671316	107.30227972999782	-159.6594478809456	1816.8388362971434	32.740581318762835	-0.39097965275612157	1845.5449548303632	890.4571650795048	119.76617327820308	1778.168451629153	487.3201768986945	212.34981436047042	1740.0061487338203	55.85066493385816	297.6239904172441	1604.9868603515429	-16.51969242411933	182.70114923466758	1875.5051039842047	1032.279969649936	4.915476717571377	1824.6841063903348	1096.4755425521046	-46.82986590403371	1767.217166327317	1157.3695859319998	-103.09207612853307	1706.206300234179	1206.172335851791	-160.70288485501715	1640.684347487963	1258.6920164159799	-221.58660683891645	1579.8273352415126	1306.4352902554954	-276.1762940419072	1463.4066246139796	1403.114926219527	-327.53424278550045	1685.7756192398592	1243.4070360377293	-223.30975048818925	1741.5835709036635	1227.3141690856878	-334.5137223892043	1756.8468027965123	950.7978949679931	-314.08807612595086	1817.9860842288695	697.2341869952002	-341.5604040896595	1819.7548420538637	673.2338916171899	-350.45131317945015	1809.7404981135658	657.7156516429812	-357.38763891155673	1803.6518170506806	645.9004517211114	-360.6361919546117	1799.33330518866	635.1880612900593	-361.99109145896097	1824.6489484782467	665.7472112661692	-345.3909533524554	1831.366243663968	621.11998358188	-346.2673453201301	1827.7174241858677	598.9853527810601	-347.97431554592646	1819.6378185872586	594.4055631956024	-350.85833481964954	1809.0305482945237	596.8079483408605	-354.4749666445968	1826.4274181910325	664.9821465372917	-341.11007304650167	1833.9436204515418	621.0377219309564	-339.64903667159655	1830.1645081706524	596.9393833496262	-340.94535868056636	1820.5139123299837	591.4404335246466	-344.15306032987746	1808.9548596259444	594.0819200409186	-347.97819801656937	1827.6041322153296	665.474387297065	-338.04196041057264	1835.629735107339	626.2083971950594	-334.0068981015506	1832.5299476409427	605.3307896350406	-334.56047376845515	1823.3242456335693	600.0938647939249	-337.3485105634626	1812.5046531989672	602.609405532355	-340.80007756011963	1828.0438499809911	668.1701171965241	-334.6482457209495	1835.985636740356	633.4472006478372	-328.7838893192677	1833.7705770515704	617.0987038666252	-328.34582978077856	1827.1851218313373	613.4576208027453	-329.9530985908704	1817.675089829029	615.788852966688	-332.7652609374377	1638.3958863868102	1239.6821831015068	-177.8846945242823	1573.4302536417229	1176.8460725045115	-81.27899112902875	1696.7414421111323	986.6599195685368	-199.04186587419127	1862.444285916774	794.7912590979439	-303.2667381196467	1848.2324886897682	782.5528027477533	-321.8852164661078	1844.1387944266548	762.1343469622284	-355.82199271272225	1842.0605087196334	746.0442402637711	-379.97403785530787	1840.9888382575787	731.0302771868724	-400.55210204417364	1848.678597795496	774.6670018201173	-324.4081246190694	1834.9214073002681	737.2192885965109	-363.1631970261204	1830.7929850360183	711.4637984634734	-395.70902552060573	1831.6534271279158	700.0483843816434	-415.5738907666164	1834.6772921157212	693.700506230003	-431.7672233092741	1851.5175002124126	770.8968733780832	-324.734437335309	1839.6331549383551	732.3321519550202	-362.70987952565764	1835.5542342478975	703.8521771603656	-398.1481651193377	1836.796767717557	689.8996702964022	-422.07807034071874	1840.2048093972269	682.8663331294848	-439.7788505265181	1853.821261821804	769.1661162244284	-323.9304875498519	1845.015352164912	733.0353757973754	-357.1330084843976	1841.9148901993483	707.88923712735	-387.8844463568069	1843.354913762653	694.2594774464706	-410.894140914545	1846.673782743481	687.5651211160699	-427.5029288800126	1857.2923794943554	768.4356071112737	-322.2396974745722	1851.173368367229	734.757849518646	-351.5102643056409	1849.4388782256206	714.2757473409898	-375.77714478683106	1850.8511875653833	704.1667719608078	-392.38746325574795	1853.9994718002608	698.140334873848	-407.0005582245101
